<mxfile host="drawio-plugin" modified="2023-07-29T03:40:26.747Z" agent="5.0 (Windows NT 6.2; Win64; x64) AppleWebKit/537.36 (KHTML, like Gecko) Chrome/98.0.4758.102 Safari/537.36" etag="Q0AJISVagLVGcsov-vGZ" version="20.5.3" type="embed"><diagram name="Seite-1" id="J7wPt4fXxp6ta61tr3np"><mxGraphModel dx="968" dy="685" grid="1" gridSize="10" guides="1" tooltips="1" connect="1" arrows="1" fold="1" page="1" pageScale="1" pageWidth="827" pageHeight="1169" math="0" shadow="0"><root><mxCell id="0"/><mxCell id="1" parent="0"/><mxCell id="2" value="root" style="ellipse;whiteSpace=wrap;html=1;fillColor=#eeeeee;strokeColor=#36393d;" vertex="1" parent="1"><mxGeometry x="204" y="20" width="60" height="40" as="geometry"/></mxCell><mxCell id="3" value="sub1" style="ellipse;whiteSpace=wrap;html=1;fillColor=#cce5ff;strokeColor=#36393d;" vertex="1" parent="1"><mxGeometry x="90" y="90" width="60" height="40" as="geometry"/></mxCell><mxCell id="4" value="sub2" style="ellipse;whiteSpace=wrap;html=1;fillColor=#cce5ff;strokeColor=#36393d;" vertex="1" parent="1"><mxGeometry x="204" y="90" width="60" height="40" as="geometry"/></mxCell><mxCell id="5" value="sub3&amp;nbsp;" style="ellipse;whiteSpace=wrap;html=1;fillColor=#cce5ff;strokeColor=#36393d;" vertex="1" parent="1"><mxGeometry x="317.5" y="90" width="60" height="40" as="geometry"/></mxCell><mxCell id="6" value="contains link to sub1" style="shape=note;whiteSpace=wrap;html=1;backgroundOutline=1;darkOpacity=0.05;gradientColor=none;labelPosition=center;verticalLabelPosition=middle;align=center;verticalAlign=bottom;" vertex="1" parent="1"><mxGeometry x="424" y="20" width="80" height="70" as="geometry"/></mxCell><mxCell id="7" value="" style="endArrow=none;dashed=1;html=1;dashPattern=1 3;strokeWidth=2;rounded=0;exitX=1;exitY=0;exitDx=0;exitDy=0;entryX=0;entryY=0.5;entryDx=0;entryDy=0;entryPerimeter=0;" edge="1" parent="1" source="5" target="6"><mxGeometry width="50" height="50" relative="1" as="geometry"><mxPoint x="354" y="50" as="sourcePoint"/><mxPoint x="404" as="targetPoint"/></mxGeometry></mxCell><mxCell id="8" value="" style="endArrow=none;dashed=1;html=1;rounded=0;exitX=1;exitY=0;exitDx=0;exitDy=0;entryX=0.05;entryY=0.825;entryDx=0;entryDy=0;entryPerimeter=0;" edge="1" parent="1" source="3" target="2"><mxGeometry width="50" height="50" relative="1" as="geometry"><mxPoint x="354" y="50" as="sourcePoint"/><mxPoint x="404" as="targetPoint"/></mxGeometry></mxCell><mxCell id="9" value="" style="endArrow=none;dashed=1;html=1;rounded=0;entryX=0.5;entryY=1;entryDx=0;entryDy=0;" edge="1" parent="1" source="4" target="2"><mxGeometry width="50" height="50" relative="1" as="geometry"><mxPoint x="151.21320343559637" y="105.85786437626894" as="sourcePoint"/><mxPoint x="217" y="63" as="targetPoint"/></mxGeometry></mxCell><mxCell id="10" value="" style="endArrow=none;dashed=1;html=1;rounded=0;entryX=1;entryY=1;entryDx=0;entryDy=0;exitX=0;exitY=0;exitDx=0;exitDy=0;" edge="1" parent="1" source="5" target="2"><mxGeometry width="50" height="50" relative="1" as="geometry"><mxPoint x="244" y="100" as="sourcePoint"/><mxPoint x="244" y="70" as="targetPoint"/></mxGeometry></mxCell><mxCell id="16" value="" style="endArrow=classic;html=1;rounded=0;shadow=0;sketch=0;curved=1;edgeStyle=orthogonalEdgeStyle;dashed=1;strokeColor=#0000FF;" edge="1" parent="1"><mxGeometry width="50" height="50" relative="1" as="geometry"><mxPoint x="344" y="90" as="sourcePoint"/><mxPoint x="134" y="90" as="targetPoint"/><Array as="points"><mxPoint x="344" y="70"/><mxPoint x="134" y="70"/></Array></mxGeometry></mxCell><mxCell id="17" value="subsub1" style="ellipse;whiteSpace=wrap;html=1;fillColor=#cdeb8b;strokeColor=#36393d;" vertex="1" parent="1"><mxGeometry x="30" y="160" width="60" height="40" as="geometry"/></mxCell><mxCell id="18" value="subsub2" style="ellipse;whiteSpace=wrap;html=1;fillColor=#cdeb8b;strokeColor=#36393d;" vertex="1" parent="1"><mxGeometry x="120" y="160" width="60" height="40" as="geometry"/></mxCell><mxCell id="21" value="subsub1" style="ellipse;whiteSpace=wrap;html=1;fillColor=#99FFCC;strokeColor=#36393d;" vertex="1" parent="1"><mxGeometry x="272.5" y="160" width="60" height="40" as="geometry"/></mxCell><mxCell id="22" value="subsub2" style="ellipse;whiteSpace=wrap;html=1;fillColor=#99FFCC;strokeColor=#36393d;" vertex="1" parent="1"><mxGeometry x="424" y="160" width="60" height="40" as="geometry"/></mxCell><mxCell id="23" value="subsub1b" style="ellipse;whiteSpace=wrap;html=1;fillColor=#cdeb8b;strokeColor=#36393d;" vertex="1" parent="1"><mxGeometry x="347.5" y="160" width="60" height="40" as="geometry"/></mxCell><mxCell id="24" value="" style="endArrow=none;dashed=1;html=1;rounded=0;exitX=0.75;exitY=0.05;exitDx=0;exitDy=0;entryX=0;entryY=1;entryDx=0;entryDy=0;exitPerimeter=0;" edge="1" parent="1" source="17" target="3"><mxGeometry width="50" height="50" relative="1" as="geometry"><mxPoint x="151.21320343559637" y="105.85786437626894" as="sourcePoint"/><mxPoint x="217" y="63" as="targetPoint"/></mxGeometry></mxCell><mxCell id="25" value="" style="endArrow=none;dashed=1;html=1;rounded=0;exitX=0.383;exitY=-0.025;exitDx=0;exitDy=0;entryX=0.717;entryY=0.95;entryDx=0;entryDy=0;exitPerimeter=0;entryPerimeter=0;" edge="1" parent="1" source="18" target="3"><mxGeometry width="50" height="50" relative="1" as="geometry"><mxPoint x="85" y="172" as="sourcePoint"/><mxPoint x="108.78679656440363" y="134.14213562373084" as="targetPoint"/></mxGeometry></mxCell><mxCell id="27" value="" style="endArrow=none;dashed=1;html=1;rounded=0;exitX=0.658;exitY=-0.075;exitDx=0;exitDy=0;entryX=0;entryY=1;entryDx=0;entryDy=0;exitPerimeter=0;" edge="1" parent="1" source="21" target="5"><mxGeometry width="50" height="50" relative="1" as="geometry"><mxPoint x="85" y="172" as="sourcePoint"/><mxPoint x="108.78679656440363" y="134.14213562373084" as="targetPoint"/></mxGeometry></mxCell><mxCell id="28" value="" style="endArrow=none;dashed=1;html=1;rounded=0;exitX=0.358;exitY=0.05;exitDx=0;exitDy=0;entryX=0.708;entryY=1.025;entryDx=0;entryDy=0;exitPerimeter=0;entryPerimeter=0;" edge="1" parent="1" source="23" target="5"><mxGeometry width="50" height="50" relative="1" as="geometry"><mxPoint x="321.98" y="167" as="sourcePoint"/><mxPoint x="336.28679656440363" y="134.14213562373106" as="targetPoint"/></mxGeometry></mxCell><mxCell id="29" value="" style="endArrow=none;dashed=1;html=1;rounded=0;exitX=0;exitY=0;exitDx=0;exitDy=0;entryX=1;entryY=0.5;entryDx=0;entryDy=0;" edge="1" parent="1" source="22" target="5"><mxGeometry width="50" height="50" relative="1" as="geometry"><mxPoint x="378.98" y="172" as="sourcePoint"/><mxPoint x="384" y="120" as="targetPoint"/></mxGeometry></mxCell><mxCell id="30" value="linked" style="text;html=1;strokeColor=none;fillColor=none;align=center;verticalAlign=middle;whiteSpace=wrap;rounded=0;" vertex="1" parent="1"><mxGeometry x="272.5" y="200" width="60" height="30" as="geometry"/></mxCell><mxCell id="31" value="linked" style="text;html=1;strokeColor=none;fillColor=none;align=center;verticalAlign=middle;whiteSpace=wrap;rounded=0;" vertex="1" parent="1"><mxGeometry x="424" y="200" width="60" height="30" as="geometry"/></mxCell><mxCell id="32" value="local" style="text;html=1;strokeColor=none;fillColor=none;align=center;verticalAlign=middle;whiteSpace=wrap;rounded=0;" vertex="1" parent="1"><mxGeometry x="344" y="200" width="60" height="30" as="geometry"/></mxCell></root></mxGraphModel></diagram></mxfile>